<svg width="547" height="205" viewBox="0 0 547 205" fill="none" xmlns="http://www.w3.org/2000/svg">
<line y1="185.5" x2="120" y2="185.5" stroke="#26539C" stroke-width="5"/>
<line x1="422" y1="185.5" x2="542" y2="185.5" stroke="#26539C" stroke-width="5"/>
<path d="M155.776 197L153.94 191.312H144.652L142.816 197H139.756L147.892 172.52H150.844L159.016 197H155.776ZM146.92 184.256L145.552 188.468H153.004L151.636 184.256L149.296 176.696L146.92 184.256ZM176.985 194.084V197H163.593V172.52H166.725V194.084H176.985ZM195.196 194.084V197H181.804V172.52H184.936V194.084H195.196ZM209.979 187.46C209.979 189.716 210.423 191.456 211.311 192.68C212.223 193.88 213.615 194.48 215.487 194.48C216.303 194.48 217.107 194.384 217.899 194.192C218.691 194 219.639 193.664 220.743 193.184L221.787 195.848C220.611 196.376 219.495 196.76 218.439 197C217.383 197.24 216.363 197.36 215.379 197.36C212.547 197.36 210.399 196.472 208.935 194.696C207.471 192.92 206.739 190.508 206.739 187.46V182.06C206.739 179.012 207.471 176.6 208.935 174.824C210.399 173.048 212.547 172.16 215.379 172.16C216.363 172.16 217.383 172.28 218.439 172.52C219.519 172.76 220.611 173.144 221.715 173.672L220.707 176.372C218.763 175.508 217.023 175.076 215.487 175.076C213.615 175.076 212.223 175.676 211.311 176.876C210.423 178.076 209.979 179.804 209.979 182.06V187.46ZM240.302 194.084V197H226.91V172.52H230.042V194.084H240.302ZM243.808 172.52H247.048V188.216C247.048 190.184 247.456 191.72 248.272 192.824C249.112 193.928 250.408 194.48 252.16 194.48C253.936 194.48 255.232 193.928 256.048 192.824C256.864 191.72 257.272 190.184 257.272 188.216V172.52H260.512V188.216C260.512 191.072 259.816 193.316 258.424 194.948C257.032 196.556 254.944 197.36 252.16 197.36C249.352 197.36 247.252 196.556 245.86 194.948C244.492 193.316 243.808 191.072 243.808 188.216V172.52ZM267.656 197V172.52H274.856C277.208 172.52 278.936 173.096 280.04 174.248C281.168 175.376 281.732 176.9 281.732 178.82V179.612C281.732 180.668 281.492 181.604 281.012 182.42C280.532 183.236 279.836 183.884 278.924 184.364C280.196 184.772 281.156 185.444 281.804 186.38C282.476 187.292 282.812 188.396 282.812 189.692V190.484C282.812 192.452 282.236 194.036 281.084 195.236C279.956 196.412 278.18 197 275.756 197H267.656ZM274.856 175.4H270.788V183.14H274.856C276.056 183.14 276.956 182.84 277.556 182.24C278.18 181.616 278.492 180.764 278.492 179.684V178.82C278.492 177.764 278.18 176.936 277.556 176.336C276.956 175.712 276.056 175.4 274.856 175.4ZM275.756 186.02H270.788V194.156H275.756C277.028 194.156 277.976 193.832 278.6 193.184C279.248 192.536 279.572 191.636 279.572 190.484V189.62C279.572 188.516 279.248 187.64 278.6 186.992C277.976 186.344 277.028 186.02 275.756 186.02ZM293.718 194.552C295.23 194.552 296.394 194.228 297.21 193.58C298.026 192.908 298.434 191.936 298.434 190.664C298.434 189.608 298.146 188.72 297.57 188C297.018 187.28 296.106 186.728 294.834 186.344L291.918 185.48C290.094 184.928 288.75 184.1 287.886 182.996C287.022 181.868 286.59 180.488 286.59 178.856C286.59 177.608 286.83 176.48 287.31 175.472C287.814 174.464 288.606 173.66 289.686 173.06C290.79 172.46 292.23 172.16 294.006 172.16C295.086 172.16 296.202 172.292 297.354 172.556C298.506 172.796 299.67 173.192 300.846 173.744L299.838 176.444C298.686 175.94 297.642 175.58 296.706 175.364C295.794 175.124 294.918 175.004 294.078 175.004C292.71 175.004 291.642 175.292 290.874 175.868C290.13 176.42 289.758 177.344 289.758 178.64C289.758 179.576 290.01 180.368 290.514 181.016C291.018 181.64 291.918 182.156 293.214 182.564L296.13 183.428C299.778 184.508 301.602 186.836 301.602 190.412C301.602 192.476 300.978 194.156 299.73 195.452C298.482 196.724 296.478 197.36 293.718 197.36C292.59 197.36 291.39 197.228 290.118 196.964C288.87 196.676 287.574 196.232 286.23 195.632L287.202 192.968C288.474 193.544 289.614 193.952 290.622 194.192C291.654 194.432 292.686 194.552 293.718 194.552ZM331.433 182.06V187.424C331.433 190.472 330.665 192.896 329.129 194.696C327.617 196.472 325.433 197.36 322.577 197.36C319.721 197.36 317.525 196.472 315.989 194.696C314.477 192.896 313.721 190.472 313.721 187.424V182.06C313.721 179.036 314.477 176.636 315.989 174.86C317.525 173.06 319.721 172.16 322.577 172.16C325.433 172.16 327.617 173.06 329.129 174.86C330.665 176.636 331.433 179.036 331.433 182.06ZM328.193 182.06C328.193 179.828 327.713 178.112 326.753 176.912C325.817 175.688 324.425 175.076 322.577 175.076C320.753 175.076 319.361 175.688 318.401 176.912C317.441 178.112 316.961 179.828 316.961 182.06V187.424C316.961 189.68 317.441 191.42 318.401 192.644C319.361 193.868 320.753 194.48 322.577 194.48C324.425 194.48 325.817 193.868 326.753 192.644C327.713 191.42 328.193 189.68 328.193 187.424V182.06ZM338.074 197V172.52H341.35C343.534 175.64 345.538 178.784 347.362 181.952C349.21 185.096 350.938 188.384 352.546 191.816L352.186 182.456V172.52H355.246V197H351.97C350.29 193.496 348.55 190.088 346.75 186.776C344.974 183.44 343.03 180.188 340.918 177.02L341.134 186.992V197H338.074ZM365.053 187.46C365.053 189.716 365.497 191.456 366.385 192.68C367.297 193.88 368.689 194.48 370.561 194.48C371.377 194.48 372.181 194.384 372.973 194.192C373.765 194 374.713 193.664 375.817 193.184L376.861 195.848C375.685 196.376 374.569 196.76 373.513 197C372.457 197.24 371.437 197.36 370.453 197.36C367.621 197.36 365.473 196.472 364.009 194.696C362.545 192.92 361.813 190.508 361.813 187.46V182.06C361.813 179.012 362.545 176.6 364.009 174.824C365.473 173.048 367.621 172.16 370.453 172.16C371.437 172.16 372.457 172.28 373.513 172.52C374.593 172.76 375.685 173.144 376.789 173.672L375.781 176.372C373.837 175.508 372.097 175.076 370.561 175.076C368.689 175.076 367.297 175.676 366.385 176.876C365.497 178.076 365.053 179.804 365.053 182.06V187.46ZM395.664 194.084V197H381.984V172.52H395.304V175.472H385.116V183.14H394.224V186.092H385.116V194.084H395.664ZM403.521 190.448H401.145L400.857 181.52V172.52H403.809V181.52L403.521 190.448ZM403.989 197H400.677V193.724H403.989V197Z" fill="#26539C"/>
<path d="M26.752 116.936C35.2853 116.936 39.552 114.035 39.552 108.232C39.552 105.757 38.784 103.795 37.248 102.344C35.712 100.893 32.896 99.656 28.8 98.632L21.76 96.84C16.5547 95.56 12.672 93.3413 10.112 90.184C7.552 86.9413 6.272 83.1013 6.272 78.664C6.272 75.4213 6.99733 72.4347 8.448 69.704C9.89867 66.888 12.2027 64.6267 15.36 62.92C18.5173 61.2133 22.6133 60.36 27.648 60.36C30.8907 60.36 34.176 60.744 37.504 61.512C40.9173 62.1947 44.3733 63.3893 47.872 65.096L44.544 73.928C38.3147 71.112 32.6827 69.704 27.648 69.704C20.224 69.704 16.512 72.4773 16.512 78.024C16.512 80.1573 17.1947 81.992 18.56 83.528C19.9253 85.064 22.4853 86.3013 26.24 87.24L33.28 89.032C38.912 90.3973 43.0507 92.616 45.696 95.688C48.3413 98.76 49.664 102.728 49.664 107.592C49.664 111.091 48.896 114.291 47.36 117.192C45.9093 120.008 43.52 122.227 40.192 123.848C36.9493 125.469 32.5547 126.28 27.008 126.28C23.3387 126.28 19.6693 125.896 16 125.128C12.416 124.36 8.704 123.123 4.864 121.416L7.68 112.712C11.3493 114.163 14.6773 115.229 17.664 115.912C20.6507 116.595 23.68 116.936 26.752 116.936ZM116.565 89.416V97.096C116.565 106.141 114.218 113.267 109.525 118.472C104.917 123.677 98.3037 126.28 89.685 126.28C81.1517 126.28 74.5383 123.677 69.845 118.472C65.1517 113.267 62.805 106.141 62.805 97.096V89.416C62.805 80.5413 65.109 73.5013 69.717 68.296C74.4103 63.0053 81.0663 60.36 89.685 60.36C98.3037 60.36 104.917 63.0053 109.525 68.296C114.218 73.5013 116.565 80.5413 116.565 89.416ZM105.685 89.416C105.685 83.3573 104.32 78.6213 101.589 75.208C98.8583 71.7093 94.8903 69.96 89.685 69.96C84.565 69.96 80.597 71.7093 77.781 75.208C75.0503 78.6213 73.685 83.3573 73.685 89.416V97.096C73.685 103.411 75.0503 108.275 77.781 111.688C80.597 115.101 84.565 116.808 89.685 116.808C94.8903 116.808 98.8583 115.101 101.589 111.688C104.32 108.275 105.685 103.411 105.685 97.096V89.416ZM185.815 89.416V97.096C185.815 106.141 183.468 113.267 178.775 118.472C174.167 123.677 167.554 126.28 158.935 126.28C150.402 126.28 143.788 123.677 139.095 118.472C134.402 113.267 132.055 106.141 132.055 97.096V89.416C132.055 80.5413 134.359 73.5013 138.967 68.296C143.66 63.0053 150.316 60.36 158.935 60.36C167.554 60.36 174.167 63.0053 178.775 68.296C183.468 73.5013 185.815 80.5413 185.815 89.416ZM174.935 89.416C174.935 83.3573 173.57 78.6213 170.839 75.208C168.108 71.7093 164.14 69.96 158.935 69.96C153.815 69.96 149.847 71.7093 147.031 75.208C144.3 78.6213 142.935 83.3573 142.935 89.416V97.096C142.935 103.411 144.3 108.275 147.031 111.688C149.847 115.101 153.815 116.808 158.935 116.808C164.14 116.808 168.108 115.101 170.839 111.688C173.57 108.275 174.935 103.411 174.935 97.096V89.416ZM235.353 70.216C232.964 70.216 230.148 70.8133 226.905 72.008C223.748 73.2027 219.908 75.6347 215.385 79.304V125H204.889V61.64H214.873V70.472C219.396 66.632 223.492 63.9867 227.161 62.536C230.916 61.0853 234.5 60.36 237.913 60.36C243.801 60.36 248.281 62.2373 251.353 65.992C254.51 69.6613 256.089 74.9093 256.089 81.736V125H245.593V83.272C245.593 74.568 242.18 70.216 235.353 70.216ZM316.542 125V116.168C312.617 119.923 309.033 122.568 305.79 124.104C302.633 125.555 299.347 126.28 295.934 126.28C289.193 126.28 283.987 123.72 280.318 118.6C276.734 113.48 274.942 106.312 274.942 97.096V89.672C274.942 80.712 277.161 73.5867 281.598 68.296C286.121 63.0053 292.649 60.36 301.182 60.36C303.657 60.36 306.131 60.616 308.606 61.128C311.081 61.64 313.555 62.3653 316.03 63.304V30.28H326.526V125H316.542ZM285.822 97.096C285.822 103.752 286.846 108.659 288.894 111.816C291.027 114.888 294.185 116.424 298.366 116.424C300.841 116.424 303.401 115.827 306.046 114.632C308.691 113.352 312.019 110.749 316.03 106.824V73.032C313.555 71.9227 311.166 71.1547 308.862 70.728C306.558 70.216 304.297 69.96 302.078 69.96C296.275 69.96 292.094 71.7093 289.534 75.208C287.059 78.7067 285.822 83.528 285.822 89.672V97.096ZM399.315 89.416V97.096C399.315 106.141 396.968 113.267 392.275 118.472C387.667 123.677 381.054 126.28 372.435 126.28C363.902 126.28 357.288 123.677 352.595 118.472C347.902 113.267 345.555 106.141 345.555 97.096V89.416C345.555 80.5413 347.859 73.5013 352.467 68.296C357.16 63.0053 363.816 60.36 372.435 60.36C381.054 60.36 387.667 63.0053 392.275 68.296C396.968 73.5013 399.315 80.5413 399.315 89.416ZM388.435 89.416C388.435 83.3573 387.07 78.6213 384.339 75.208C381.608 71.7093 377.64 69.96 372.435 69.96C367.315 69.96 363.347 71.7093 360.531 75.208C357.8 78.6213 356.435 83.3573 356.435 89.416V97.096C356.435 103.411 357.8 108.275 360.531 111.688C363.347 115.101 367.315 116.808 372.435 116.808C377.64 116.808 381.608 115.101 384.339 111.688C387.07 108.275 388.435 103.411 388.435 97.096V89.416ZM448.853 70.216C446.464 70.216 443.648 70.8133 440.405 72.008C437.248 73.2027 433.408 75.6347 428.885 79.304V125H418.389V61.64H428.373V70.472C432.896 66.632 436.992 63.9867 440.661 62.536C444.416 61.0853 448 60.36 451.413 60.36C457.301 60.36 461.781 62.2373 464.853 65.992C468.01 69.6613 469.589 74.9093 469.589 81.736V125H459.093V83.272C459.093 74.568 455.68 70.216 448.853 70.216ZM542.202 132.936C542.202 139.165 539.642 144.157 534.522 147.912C529.487 151.667 522.533 153.544 513.658 153.544C509.221 153.544 504.57 152.947 499.706 151.752C494.927 150.557 490.405 148.637 486.138 145.992L489.722 137.8C493.989 140.189 498.085 141.853 502.01 142.792C506.021 143.816 509.903 144.328 513.658 144.328C519.461 144.328 523.941 143.389 527.098 141.512C530.255 139.635 531.834 137.117 531.834 133.96C531.834 131.656 531.066 129.864 529.53 128.584C527.994 127.389 525.519 126.792 522.106 126.792H507.386C501.839 126.792 497.829 125.469 495.354 122.824C492.879 120.179 491.642 117.277 491.642 114.12C491.642 111.901 492.154 109.725 493.178 107.592C494.202 105.373 495.653 103.197 497.53 101.064C494.543 99.272 492.154 96.84 490.362 93.768C488.57 90.6107 487.674 86.8133 487.674 82.376C487.674 77.512 488.698 73.4587 490.746 70.216C492.879 66.9733 495.695 64.5413 499.194 62.92C502.693 61.2133 506.618 60.36 510.97 60.36H513.146C516.133 60.36 518.863 60.7867 521.338 61.64H544.122V70.984L530.298 69.064C532.09 70.6 533.541 72.52 534.65 74.824C535.759 77.0427 536.314 79.7733 536.314 83.016C536.314 87.624 535.247 91.5067 533.114 94.664C531.066 97.8213 528.293 100.253 524.794 101.96C521.295 103.581 517.413 104.392 513.146 104.392H510.97C509.861 104.392 508.794 104.349 507.77 104.264C506.746 104.093 505.722 103.923 504.698 103.752C502.223 106.483 500.986 109.171 500.986 111.816C500.986 115.229 503.375 116.936 508.154 116.936H522.49C528.634 116.936 533.455 118.301 536.954 121.032C540.453 123.763 542.202 127.731 542.202 132.936ZM513.146 95.304C516.474 95.304 519.418 94.2373 521.978 92.104C524.538 89.9707 525.818 86.728 525.818 82.376C525.818 78.1093 524.538 74.9093 521.978 72.776C519.418 70.5573 516.474 69.448 513.146 69.448H510.97C507.557 69.448 504.57 70.5573 502.01 72.776C499.45 74.9093 498.17 78.1093 498.17 82.376C498.17 86.728 499.45 89.9707 502.01 92.104C504.57 94.2373 507.557 95.304 510.97 95.304H513.146Z" fill="#26539C"/>
</svg>
